<svg width="58" height="58" viewBox="0 0 58 58" fill="none" xmlns="http://www.w3.org/2000/svg">
<path fill-rule="evenodd" clip-rule="evenodd" d="M18.0405 2.57619C20.8752 2.44569 21.7791 2.41669 29.0001 2.41669C36.2211 2.41669 37.1249 2.4481 39.9572 2.57619C42.7896 2.70427 44.7229 3.15619 46.4146 3.8111C48.186 4.48052 49.7931 5.52694 51.1222 6.88027C52.4756 8.20702 53.5196 9.81169 54.1866 11.5855C54.8439 13.2772 55.2934 15.2105 55.4239 18.038C55.5544 20.8776 55.5834 21.7814 55.5834 29C55.5834 36.221 55.552 37.1249 55.4239 39.9596C55.2958 42.7871 54.8439 44.7204 54.1866 46.4121C53.5196 48.1862 52.4738 49.7935 51.1222 51.1222C49.7931 52.4755 48.186 53.5195 46.4146 54.1865C44.7229 54.8439 42.7896 55.2934 39.9621 55.4239C37.1249 55.5544 36.2211 55.5834 29.0001 55.5834C21.7791 55.5834 20.8752 55.5519 18.0405 55.4239C15.213 55.2958 13.2797 54.8439 11.588 54.1865C9.81397 53.5194 8.20665 52.4737 6.87791 51.1222C5.5255 49.7946 4.47893 48.1881 3.81116 46.4145C3.15625 44.7229 2.70675 42.7895 2.57625 39.962C2.44575 37.1224 2.41675 36.2186 2.41675 29C2.41675 21.779 2.44816 20.8752 2.57625 18.0429C2.70433 15.2105 3.15625 13.2772 3.81116 11.5855C4.47991 9.81188 5.52728 8.20536 6.88033 6.87785C8.20718 5.52573 9.81289 4.47918 11.5856 3.8111C13.2772 3.15619 15.2106 2.70669 18.0381 2.57619H18.0405ZM39.7422 7.36119C36.9388 7.2331 36.0978 7.20652 29.0001 7.20652C21.9023 7.20652 21.0613 7.2331 18.258 7.36119C15.6649 7.4796 14.2584 7.91219 13.3207 8.2771C12.081 8.76044 11.1941 9.33319 10.2637 10.2636C9.38169 11.1216 8.70293 12.1662 8.27716 13.3207C7.91225 14.2584 7.47966 15.6649 7.36125 18.2579C7.23316 21.0613 7.20658 21.9023 7.20658 29C7.20658 36.0978 7.23316 36.9388 7.36125 39.7421C7.47966 42.3352 7.91225 43.7417 8.27716 44.6794C8.7025 45.8321 9.38158 46.8785 10.2637 47.7364C11.1216 48.6185 12.168 49.2976 13.3207 49.7229C14.2584 50.0879 15.6649 50.5204 18.258 50.6389C21.0613 50.7669 21.8999 50.7935 29.0001 50.7935C36.1002 50.7935 36.9388 50.7669 39.7422 50.6389C42.3352 50.5204 43.7417 50.0879 44.6794 49.7229C45.9192 49.2396 46.8061 48.6669 47.7365 47.7364C48.6186 46.8785 49.2977 45.8321 49.723 44.6794C50.0879 43.7417 50.5205 42.3352 50.6389 39.7421C50.767 36.9388 50.7936 36.0978 50.7936 29C50.7936 21.9023 50.767 21.0613 50.6389 18.2579C50.5205 15.6649 50.0879 14.2584 49.723 13.3207C49.2397 12.0809 48.6669 11.194 47.7365 10.2636C46.8784 9.38169 45.8339 8.70295 44.6794 8.2771C43.7417 7.91219 42.3352 7.4796 39.7422 7.36119ZM25.6047 37.1949C27.5009 37.9843 29.6124 38.0908 31.5785 37.4963C33.5446 36.9019 35.2433 35.6432 36.3845 33.9354C37.5257 32.2276 38.0385 30.1766 37.8355 28.1327C37.6325 26.0888 36.7262 24.1787 35.2713 22.7288C34.3439 21.8019 33.2225 21.0922 31.9879 20.6508C30.7533 20.2094 29.4361 20.0471 28.1313 20.1758C26.8264 20.3045 25.5664 20.7209 24.4418 21.3951C23.3172 22.0692 22.356 22.9843 21.6276 24.0745C20.8991 25.1647 20.4214 26.4028 20.2288 27.6998C20.0363 28.9967 20.1337 30.3202 20.5141 31.575C20.8944 32.8298 21.5482 33.9847 22.4285 34.9564C23.3087 35.9282 24.3935 36.6927 25.6047 37.1949ZM19.3382 19.3382C20.6071 18.0694 22.1134 17.0629 23.7711 16.3762C25.4289 15.6896 27.2057 15.3361 29.0001 15.3361C30.7944 15.3361 32.5712 15.6896 34.229 16.3762C35.8868 17.0629 37.3931 18.0694 38.6619 19.3382C39.9307 20.607 40.9372 22.1133 41.6239 23.7711C42.3105 25.4289 42.664 27.2057 42.664 29C42.664 30.7944 42.3105 32.5712 41.6239 34.229C40.9372 35.8867 39.9307 37.393 38.6619 38.6618C36.0994 41.2243 32.624 42.6639 29.0001 42.6639C25.3762 42.6639 21.9007 41.2243 19.3382 38.6618C16.7758 36.0994 15.3362 32.6239 15.3362 29C15.3362 25.3761 16.7758 21.9007 19.3382 19.3382ZM45.6944 17.371C46.0088 17.0744 46.2605 16.7177 46.4346 16.3221C46.6087 15.9265 46.7017 15.5 46.708 15.0678C46.7143 14.6356 46.6338 14.2065 46.4713 13.806C46.3088 13.4054 46.0676 13.0416 45.762 12.7359C45.4563 12.4303 45.0925 12.1891 44.692 12.0266C44.2914 11.8641 43.8624 11.7836 43.4302 11.7899C42.998 11.7962 42.5714 11.8892 42.1758 12.0633C41.7802 12.2374 41.4235 12.4891 41.1269 12.8035C40.5501 13.415 40.2343 14.2272 40.2465 15.0678C40.2588 15.9083 40.5981 16.711 41.1925 17.3054C41.787 17.8998 42.5896 18.2392 43.4302 18.2514C44.2707 18.2637 45.0829 17.9479 45.6944 17.371Z" fill="#3E8F42"/>
</svg>
