<svg width="53" height="53" viewBox="0 0 53 53" fill="none" xmlns="http://www.w3.org/2000/svg">
<path d="M41.6822 9.9375C44.8843 9.9375 47.4791 12.5323 47.4791 15.7344V37.2656C47.4791 40.4677 44.8843 43.0625 41.6822 43.0625H11.3176C9.7802 43.0625 8.30574 42.4518 7.21862 41.3646C6.13149 40.2775 5.52075 38.8031 5.52075 37.2656V15.7344C5.52075 12.5323 8.11554 9.9375 11.3176 9.9375H41.6822ZM44.7187 20.2626L27.1646 29.9174C26.984 30.0167 26.7835 30.0743 26.5777 30.086C26.3719 30.0976 26.1661 30.063 25.9754 29.9847L25.8352 29.9185L8.28117 20.2615V37.2656C8.28117 38.0709 8.60108 38.8433 9.17053 39.4127C9.73997 39.9822 10.5123 40.3021 11.3176 40.3021H41.6822C42.4875 40.3021 43.2599 39.9822 43.8293 39.4127C44.3988 38.8433 44.7187 38.0709 44.7187 37.2656V20.2626ZM41.6822 12.6979H11.3176C10.5123 12.6979 9.73997 13.0178 9.17053 13.5873C8.60108 14.1567 8.28117 14.9291 8.28117 15.7344V17.1135L26.4999 27.1327L44.7187 17.1124V15.7344C44.7187 14.9291 44.3988 14.1567 43.8293 13.5873C43.2599 13.0178 42.4875 12.6979 41.6822 12.6979Z" fill="#3E8F42"/>
</svg>
